<svg width="81" height="81" viewBox="0 0 81 81" fill="none" xmlns="http://www.w3.org/2000/svg">
<path d="M40.7283 4.98462C45.4559 4.98462 50.1372 5.91579 54.5049 7.72496C58.8726 9.53413 62.8412 12.1859 66.1841 15.5288C69.527 18.8717 72.1788 22.8403 73.9879 27.208C75.7971 31.5757 76.7283 36.257 76.7283 40.9846C76.7283 45.7122 75.7971 50.3935 73.9879 54.7612C72.1788 59.129 69.527 63.0976 66.1841 66.4405C62.8412 69.7834 58.8726 72.4351 54.5049 74.2443C50.1371 76.0535 45.4558 76.9846 40.7283 76.9846C36.0007 76.9846 31.3194 76.0534 26.9517 74.2443C22.5839 72.4351 18.6153 69.7834 15.2724 66.4405C11.9295 63.0975 9.27777 59.1289 7.4686 54.7612C5.65943 50.3935 4.72827 45.7122 4.72827 40.9846C4.72827 36.257 5.65944 31.5757 7.46862 27.208C9.27779 22.8403 11.9295 18.8717 15.2724 15.5288C18.6154 12.1859 22.584 9.53411 26.9517 7.72495C31.3194 5.91578 36.0007 4.98462 40.7283 4.98462L40.7283 4.98462Z" stroke="#F5F2F2" stroke-width="8" stroke-linecap="round" stroke-linejoin="round"/>
<path d="M40.7283 4.98462C48.3307 4.98462 55.738 7.3914 61.8885 11.86C68.0391 16.3286 72.617 22.6296 74.9663 29.86C77.3156 37.0904 77.3156 44.8789 74.9663 52.1092C72.617 59.3396 68.0391 65.6406 61.8885 70.1092" stroke="#2563EB" stroke-width="8" stroke-linecap="round" stroke-linejoin="round"/>
</svg>
